<svg width="512" height="512" viewBox="0 0 512 512" fill="none" xmlns="http://www.w3.org/2000/svg">
<path d="M437.333 0H202.667C199.83 0 197.12 1.131 195.115 3.115L67.115 131.115C65.131 133.12 64 135.829 64 138.667V501.334C64 507.221 68.779 512 74.667 512H437.334C443.222 512 448.001 507.221 448.001 501.333V10.667C448 4.779 443.221 0 437.333 0ZM426.667 490.667H85.333V143.083L207.083 21.333H426.667V490.667V490.667Z" fill="white"/>
<path d="M202.667 0C196.779 0 192 4.779 192 10.667V128H74.667C68.779 128 64 132.779 64 138.667C64 144.555 68.779 149.334 74.667 149.334H202.667C208.555 149.334 213.334 144.555 213.334 138.667V10.667C213.333 4.779 208.555 0 202.667 0Z" fill="white"/>
<path d="M224 213.333H117.333C111.445 213.333 106.666 218.112 106.666 224C106.666 229.888 111.445 234.667 117.333 234.667H224C229.888 234.667 234.667 229.888 234.667 224C234.667 218.112 229.888 213.333 224 213.333Z" fill="white"/>
<path d="M394.667 298.667H117.333C111.445 298.667 106.666 303.446 106.666 309.334C106.666 315.222 111.445 320 117.333 320H394.666C400.554 320 405.333 315.221 405.333 309.333C405.333 303.445 400.555 298.667 394.667 298.667Z" fill="white"/>
<path d="M394.667 384H117.333C111.445 384 106.666 388.779 106.666 394.667C106.666 400.555 111.445 405.334 117.333 405.334H394.666C400.554 405.334 405.333 400.555 405.333 394.667C405.333 388.779 400.555 384 394.667 384Z" fill="white"/>
<path d="M332.501 138.837C332.437 138.837 330.282 138.474 330.218 138.474C304.149 134.485 298.666 127.658 298.666 122.666C298.666 115.263 312.661 106.666 330.709 106.666C348.65 106.666 361.984 114.751 362.73 122.026C363.306 127.893 368.661 132.031 374.421 131.562C380.266 130.965 384.533 125.738 383.936 119.871C381.931 100.18 359.061 85.332 330.709 85.332C300.778 85.332 277.333 101.716 277.333 122.665C277.333 151.934 314.709 157.673 328.896 159.849C328.96 159.849 331.115 160.212 331.179 160.212C357.206 164.201 362.667 171.007 362.667 175.999C362.667 183.402 348.672 191.999 330.624 191.999C312.683 191.999 299.349 183.892 298.603 176.618C298.027 170.73 292.694 166.527 286.912 167.082C281.067 167.658 276.8 172.906 277.397 178.773C279.402 198.485 302.272 213.333 330.624 213.333C360.555 213.333 384 196.928 384 176C384 146.731 346.688 140.992 332.501 138.837Z" fill="white"/>
<path d="M330.667 64C324.779 64 320 68.779 320 74.667V224C320 229.888 324.779 234.667 330.667 234.667C336.555 234.667 341.334 229.888 341.334 224V74.667C341.333 68.779 336.555 64 330.667 64Z" fill="white"/>
</svg>
