<svg width="513" height="513" viewBox="0 0 513 513" fill="none" xmlns="http://www.w3.org/2000/svg">
<g clip-path="url(#clip0)">
<path d="M124.672 280.602C106.389 263.279 33.28 257.669 11.307 256.367C8.32 256.26 5.483 257.242 3.35 259.247C1.216 261.253 0 264.069 0 267.013V459.013C0 464.901 4.779 469.68 10.667 469.68H74.667C79.275 469.68 83.371 466.715 84.8 462.32C86.357 457.541 123.115 344.731 127.957 289.264C128.235 286.021 127.04 282.821 124.672 280.602ZM66.88 448.346H21.333V278.448C55.616 281.157 92.608 287.045 106.048 293.573C100.395 340.293 74.816 423.301 66.88 448.346Z" fill="white"/>
<path d="M510.891 411.589C496.064 381.957 463.296 366.874 431.147 374.917L349.419 395.354C343.702 396.783 340.224 402.565 341.654 408.282C343.083 413.999 348.865 417.477 354.582 416.047L436.31 395.61C454.977 390.981 473.942 397.487 485.697 411.738L379.948 459.823C290.241 496.58 287.148 495.407 248.705 480.9L88.705 427.567C83.073 425.69 77.078 428.719 75.222 434.308C73.366 439.897 76.374 445.935 81.963 447.791L241.558 500.996C259.499 507.759 271.873 511.684 285.782 511.684C307.414 511.663 332.758 502.212 388.438 479.407L505.771 426.074C508.395 424.879 510.443 422.661 511.403 419.93C512.363 417.178 512.192 414.191 510.891 411.589Z" fill="white"/>
<path d="M311.637 341.936L119.637 299.269C113.984 298.053 108.181 301.616 106.901 307.376C105.642 313.136 109.248 318.832 115.008 320.112L306.731 362.715C330.368 368.624 339.862 377.926 341.163 397.403L320.683 402.523C313.11 404.443 305.024 404.635 297.302 403.078L204.758 384.561C198.87 383.324 193.366 387.142 192.214 392.924C191.062 398.705 194.795 404.316 200.577 405.468L293.142 423.985C297.942 424.945 302.87 425.414 307.777 425.414C313.878 425.414 320.001 424.667 325.868 423.195L354.583 416.027C359.34 414.832 362.668 410.566 362.668 405.68V402.309C362.667 369.37 347.029 350.768 311.637 341.936Z" fill="white"/>
<path d="M403.136 175.237C401.109 172.592 397.973 171.034 394.645 171.034H223.979C220.63 171.034 217.472 172.613 215.467 175.279C213.291 178.159 162.07 246.575 139.371 305.519C137.259 311.002 139.99 317.167 145.494 319.3C150.934 321.391 157.142 318.681 159.275 313.177C177.771 265.113 217.899 208.174 229.376 192.345H389.333C414.336 226.009 469.333 309.145 469.333 352.345C469.333 362.692 468.224 372.932 466.048 382.724C464.789 388.484 468.395 394.18 474.155 395.46C474.923 395.631 475.712 395.716 476.48 395.716C481.365 395.716 485.76 392.324 486.869 387.353C489.386 376.046 490.666 364.27 490.666 352.345C490.667 290.842 406.72 179.909 403.136 175.237Z" fill="white"/>
<path d="M394.667 128.346H224C218.112 128.346 213.333 133.125 213.333 139.013C213.333 144.901 218.112 149.68 224 149.68H394.667C400.555 149.68 405.334 144.901 405.334 139.013C405.334 133.125 400.555 128.346 394.667 128.346Z" fill="white"/>
<path d="M444.885 3.46107C441.621 0.197075 436.693 -0.570925 432.576 1.45607L354.112 40.6881L316.885 3.46107C312.725 -0.698925 305.962 -0.698925 301.802 3.46107L264.575 40.6881L186.112 1.45507C182.016 -0.592925 177.045 0.196075 173.803 3.46007C170.539 6.72407 169.75 11.6731 171.798 15.7911L214.465 101.124C216.278 104.729 219.969 107.012 224.001 107.012H394.668C398.7 107.012 402.391 104.729 404.225 101.103L446.892 15.7701C448.939 11.6741 448.128 6.70307 444.885 3.46107ZM388.075 85.6791H230.592L205.184 34.8631L261.909 63.2151C266.005 65.2421 270.954 64.4741 274.218 61.2101L309.333 26.0951L344.469 61.2101C347.733 64.4951 352.704 65.2631 356.778 63.2151L413.482 34.8631L388.075 85.6791Z" fill="white"/>
<path d="M311.552 299.247L309.205 298.799C287.488 294.788 277.354 288.09 277.354 277.679C277.354 266.116 292.01 256.346 309.375 256.346C326.079 256.346 340.436 265.413 341.375 276.527C341.866 282.394 347.242 286.98 352.895 286.255C358.762 285.764 363.114 280.602 362.623 274.735C360.703 252.079 337.812 235.012 309.354 235.012C279.935 235.012 255.999 254.148 255.999 277.679C255.999 299.588 272.575 313.754 307.199 320.132L309.524 320.559C331.22 324.57 341.332 331.268 341.332 341.679C341.332 347.674 337.492 352.132 334.271 354.842C329.748 358.618 329.151 365.359 332.927 369.861C335.039 372.378 338.068 373.68 341.119 373.68C343.53 373.68 345.962 372.869 347.988 371.205C357.46 363.269 362.687 352.794 362.687 341.701C362.688 319.77 346.112 305.626 311.552 299.247Z" fill="white"/>
<path d="M309.333 213.679C303.445 213.679 298.666 218.458 298.666 224.346V341.68C298.666 347.568 303.445 352.347 309.333 352.347C315.221 352.347 320 347.568 320 341.68V224.346C320 218.458 315.221 213.679 309.333 213.679Z" fill="white"/>
</g>
<defs>
<clipPath id="clip0">
<rect width="512.014" height="512.014" fill="white"/>
</clipPath>
</defs>
</svg>
