<svg width="512" height="512" viewBox="0 0 512 512" fill="none" xmlns="http://www.w3.org/2000/svg">
<g clip-path="url(#clip0)">
<path d="M324.039 496.027C316.49 496.027 309.045 493.699 302.667 489.114L242.878 446.198C241.32 445.151 238.738 445.132 236.883 446.389L177.371 489.094C166.709 496.601 153.374 498.031 141.602 493.102C129.87 488.177 121.613 477.725 119.543 465.141L107.47 392.467C107.13 390.463 105.552 388.881 103.525 388.541L30.8318 376.469C18.2671 374.399 7.8153 366.165 2.88626 354.413C-2.06231 342.618 -0.589845 329.283 6.83496 318.769L49.8137 258.875C50.88 257.316 50.88 254.735 49.6223 252.879L6.96385 193.43C-0.523447 183.002 -2.01934 169.711 2.88626 157.853C7.79577 145.991 18.2671 137.672 30.8943 135.606L103.568 123.529C105.572 123.189 107.15 121.611 107.494 119.584L119.566 46.8908C121.636 34.326 129.87 23.8977 141.622 18.9687C153.398 13.9967 166.748 15.4691 177.266 22.9135L237.16 65.8961C238.867 67.1108 241.191 67.1342 242.898 65.8727L302.648 22.9799C313.076 15.5121 326.387 14.0201 338.225 18.9257C350.087 23.8313 358.383 34.3065 360.472 46.9337L364.526 71.3368C365.975 80.0583 360.089 88.2916 351.364 89.7445C342.619 91.1506 334.409 85.3076 332.956 76.5822L328.902 52.1362C328.543 49.8552 326.922 48.8749 325.981 48.4882C325.063 48.0859 323.188 47.6368 321.309 48.9804L261.544 91.8966C248.659 101.091 231.403 101.091 218.542 91.92L158.71 48.9804C156.807 47.6368 154.909 48.0859 153.995 48.4687C152.886 48.9374 151.5 49.9412 151.136 52.1167L139.04 124.853C136.459 140.359 124.323 152.498 108.814 155.08L36.1007 167.172C33.8158 167.535 32.8355 169.156 32.4527 170.097C32.0465 171.035 31.5973 172.89 32.9409 174.769L75.0057 233.276C84.7544 247.525 84.7544 264.589 76.0524 277.282L32.9409 337.349C31.5973 339.247 32.0465 341.145 32.4293 342.083C32.9019 343.192 33.9017 344.578 36.0772 344.942L108.814 357.038C124.323 359.615 136.459 371.754 139.04 387.26L151.113 459.977C151.476 462.176 152.886 463.176 153.972 463.645C154.89 464.031 156.768 464.477 158.815 463.071L218.475 420.24C231.466 411.343 248.53 411.343 261.223 420.045L321.29 463.156C323.165 464.5 325 464.051 325.961 463.645C326.879 463.262 328.519 462.282 328.883 460.02L340.979 387.284C343.556 371.774 355.695 359.639 371.201 357.057L443.918 344.984C446.117 344.621 447.117 343.215 447.586 342.125C447.972 341.188 448.441 339.309 447.012 337.282L404.181 277.622C399.037 270.455 400.658 260.453 407.849 255.289C415.016 250.169 425.042 251.79 430.182 258.957L473.098 318.75C480.585 329.393 482.058 342.723 477.109 354.518C472.18 366.251 461.728 374.504 449.144 376.574L376.47 388.647C374.466 388.99 372.888 390.568 372.545 392.595L360.472 465.289C358.406 477.873 350.087 488.348 338.248 493.274C333.64 495.109 328.82 496.027 324.039 496.027V496.027Z" fill="white"/>
<path d="M261.349 314.715C257.255 314.715 253.158 313.161 250.045 310.024L154.058 214.037C147.809 207.788 147.809 197.656 154.058 191.403C160.307 185.154 170.439 185.154 176.688 191.403L261.372 276.087L484.683 52.7767C490.932 46.5275 501.063 46.5275 507.312 52.7767C513.562 59.0259 513.562 69.1574 507.312 75.4105L272.675 310.044C269.543 313.161 265.446 314.715 261.349 314.715V314.715Z" fill="white"/>
</g>
<defs>
<clipPath id="clip0">
<rect width="512" height="512" fill="white"/>
</clipPath>
</defs>
</svg>
