<svg xmlns="http://www.w3.org/2000/svg" viewBox="0 0 173.93 173.93"><defs><style>.cls-1{fill:#00aae5;}.cls-2{fill:#fff;}</style></defs><title>Loan_Market_logo</title><g id="Layer_2" data-name="Layer 2"><g id="Layer_1-2" data-name="Layer 1"><rect class="cls-1" width="173.93" height="173.93"/><path class="cls-2" d="M23.64,86.41h5.62v22.85h9.09v5.06H23.64Z"/><path class="cls-2" d="M51.31,92.95a10.88,10.88,0,0,1,11.24,11c0,6.3-4.71,10.88-11.24,10.88s-11.2-4.58-11.2-10.88A10.85,10.85,0,0,1,51.31,92.95Zm0,17a5.67,5.67,0,0,0,5.74-6c0-3.55-2.43-6.14-5.74-6.14s-5.7,2.55-5.7,6.14A5.66,5.66,0,0,0,51.31,110Z"/><path class="cls-2" d="M72.61,101a8.45,8.45,0,0,1,4.51,1.16v-1.36c0-1.83-1.36-3.07-3.79-3.07a12.29,12.29,0,0,0-5.54,1.47l-2.07-3.75a15.53,15.53,0,0,1,8.21-2.47c6.7,0,8.69,3.51,8.69,8.17v13.2H77.75L77.39,113a6.52,6.52,0,0,1-5.06,1.87c-4.23,0-7.81-2.59-7.81-7C64.52,103.75,67.74,101,72.61,101Zm1,9.61c2.07,0,3.59-1.12,3.59-2.87s-1.51-2.91-3.63-2.91S70,106,70,107.7,71.57,110.57,73.65,110.57Z"/><path class="cls-2" d="M104.87,102.28v12h-5.5V101.64a3.5,3.5,0,0,0-3.47-3.75,3.63,3.63,0,0,0-3.71,3.91v12.52h-5.5V93.47h5.38V95.9a6.58,6.58,0,0,1,5.58-3C103.59,92.95,104.87,97.85,104.87,102.28Z"/><path class="cls-2" d="M38.83,140l8-19H54.1v27.91H48.72V128.94l-7.26,17.58H36.24L29,128.94v19.94H23.6V121h7.26Z"/><path class="cls-2" d="M65.79,135.52a8.45,8.45,0,0,1,4.51,1.16v-1.36c0-1.83-1.36-3.07-3.79-3.07A12.29,12.29,0,0,0,61,133.73L58.89,130a15.53,15.53,0,0,1,8.21-2.47c6.7,0,8.69,3.51,8.69,8.17v13.2H70.93l-.36-1.36a6.52,6.52,0,0,1-5.06,1.87c-4.23,0-7.81-2.59-7.81-7C57.7,138.31,60.93,135.52,65.79,135.52Zm1,9.61c2.07,0,3.59-1.12,3.59-2.87s-1.51-2.91-3.63-2.91-3.59,1.2-3.59,2.91S64.75,145.13,66.83,145.13Z"/><path class="cls-2" d="M91,133.09c-4.11,0-5.62,2.55-5.62,6.7v9.09h-5.5V128h5.38v3A6.07,6.07,0,0,1,91,127.51Z"/><path class="cls-2" d="M94.22,120.05h5.5V136.8l6.7-8.77h6.18l-7.34,9.45,7.89,11.4H106.7l-7-10.77v10.77h-5.5Z"/><path class="cls-2" d="M123.73,127.51c6.46,0,10.13,4.31,10.13,11.12a11.94,11.94,0,0,1,0,1.2H119.14c.12,2.79,2.35,4.78,5.42,4.78a6.09,6.09,0,0,0,5.06-2.55l3.63,2.75a9.9,9.9,0,0,1-8.77,4.58c-6.7,0-11-4.62-11-10.88S117.79,127.51,123.73,127.51Zm4.54,8.73a4.26,4.26,0,0,0-4.47-4.23,4.42,4.42,0,0,0-4.5,4.23Z"/><path class="cls-2" d="M137.45,123.64h5.42V128h3.91v4.47h-3.91v8.05c0,3.11,1,3.75,3.07,3.75a9,9,0,0,0,1,0V149a11.23,11.23,0,0,1-2.35.2c-5,0-7.18-2.79-7.18-8.45v-8.21h-2.19V128h2.23Z"/><path class="cls-2" d="M148.48,124h-.65v-.5h1.86v.5H149v2.28h-.56Z"/><path class="cls-2" d="M151.56,125.4l.8-1.9h.72v2.79h-.54v-2l-.72,1.76h-.52l-.73-1.76v2H150V123.5h.73Z"/></g></g></svg>