<svg width="40" height="40" viewBox="0 0 40 40" fill="none" xmlns="http://www.w3.org/2000/svg">
<circle cx="20" cy="20" r="19" stroke="black" stroke-width="2"/>
<path fill-rule="evenodd" clip-rule="evenodd" d="M15 11C12.7909 11 11 12.7909 11 15V25C11 27.2091 12.7909 29 15 29H25C27.2091 29 29 27.2091 29 25V15C29 12.7909 27.2091 11 25 11H15ZM9 15C9 11.6863 11.6863 9 15 9H25C28.3137 9 31 11.6863 31 15V25C31 28.3137 28.3137 31 25 31H15C11.6863 31 9 28.3137 9 25V15Z" fill="black"/>
<path fill-rule="evenodd" clip-rule="evenodd" d="M20.4833 16.9892C19.8591 16.8967 19.2216 17.0033 18.6615 17.2939C18.1014 17.5845 17.6472 18.0444 17.3635 18.608C17.0798 19.1717 16.9811 19.8104 17.0813 20.4334C17.1816 21.0564 17.4757 21.6319 17.9219 22.0781C18.3681 22.5243 18.9436 22.8184 19.5666 22.9187C20.1896 23.0189 20.8283 22.9202 21.392 22.6365C21.9556 22.3528 22.4155 21.8986 22.7061 21.3385C22.9967 20.7784 23.1033 20.1409 23.0108 19.5167C22.9164 18.88 22.6197 18.2906 22.1645 17.8355C21.7094 17.3803 21.12 17.0837 20.4833 16.9892ZM17.7404 15.5187C18.6739 15.0343 19.7363 14.8566 20.7766 15.0109C21.8378 15.1682 22.8202 15.6627 23.5788 16.4213C24.3373 17.1798 24.8318 18.1622 24.9891 19.2234C25.1434 20.2637 24.9657 21.3261 24.4813 22.2596C23.997 23.1931 23.2306 23.9501 22.2912 24.423C21.3518 24.8958 20.2872 25.0604 19.2489 24.8933C18.2105 24.7262 17.2513 24.236 16.5077 23.4923C15.764 22.7487 15.2738 21.7895 15.1067 20.7511C14.9396 19.7128 15.1042 18.6482 15.577 17.7088C16.0499 16.7694 16.8069 16.0031 17.7404 15.5187Z" fill="black"/>
</svg>
